<svg width="138" height="45" viewBox="0 0 138 45" fill="none" xmlns="http://www.w3.org/2000/svg">
<path d="M71.196 11.75C69.136 10.49 66.766 9.85999 64.086 9.85999C61.246 9.85999 58.786 10.53 56.716 11.87C54.636 13.21 53.026 15.09 51.876 17.5C50.726 19.91 50.156 22.75 50.156 26.01C50.156 29.27 50.726 32.12 51.876 34.55C53.026 36.98 54.656 38.86 56.776 40.18C58.896 41.5 61.406 42.16 64.326 42.16C67.586 42.16 70.356 41.28 72.636 39.51C74.906 37.74 76.456 35.48 77.266 32.72L72.016 32.31C71.506 33.86 70.606 35.12 69.306 36.07C68.006 37.02 66.346 37.5 64.326 37.5C61.646 37.5 59.516 36.66 57.946 34.99C56.376 33.32 55.486 30.83 55.296 27.53H77.736V26.07C77.736 22.61 77.166 19.68 76.016 17.27C74.866 14.86 73.266 13.02 71.206 11.76L71.196 11.75ZM55.276 23.2C55.706 20.32 56.686 18.16 58.216 16.7C59.756 15.24 61.706 14.51 64.076 14.51C66.446 14.51 68.266 15.21 69.756 16.61C71.256 18.01 72.116 20.21 72.346 23.2H55.266H55.276Z" fill="#172b4d"/>
<path d="M88.4261 36.64C88.0961 36.31 87.9261 35.83 87.9261 35.21V9.84998H83.0261V35.62C83.0261 37.64 83.5861 39.12 84.7161 40.05C85.8461 40.98 87.2961 41.45 89.0861 41.45H92.5261V37.14H89.8461C89.2261 37.14 88.7461 36.98 88.4161 36.64H88.4261Z" fill="#172b4d"/>
<path d="M102.866 9.84998H97.9661V41.45H102.866V9.84998Z" fill="#172b4d"/>
<path d="M102.986 0H97.8561V5.71H102.986V0Z" fill="#172b4d"/>
<path d="M135.816 37.14C135.236 37.14 134.816 36.99 134.566 36.7C134.316 36.41 134.186 35.91 134.186 35.21V22.44C134.186 18.51 133.136 15.44 131.036 13.2C128.936 10.97 125.906 9.84998 121.946 9.84998C118.446 9.84998 115.586 10.75 113.346 12.56C111.106 14.37 109.706 16.73 109.116 19.64L114.306 20.05C114.776 18.26 115.626 16.89 116.876 15.94C118.116 14.99 119.806 14.51 121.946 14.51C124.396 14.51 126.226 15.15 127.456 16.43C128.686 17.71 129.296 19.66 129.296 22.26L118.336 24.3C114.956 24.92 112.486 25.99 110.936 27.51C109.386 29.03 108.606 31.11 108.606 33.75C108.606 36.39 109.546 38.45 111.436 39.93C113.316 41.41 115.856 42.15 119.046 42.15C120.796 42.15 122.446 41.85 124.006 41.25C125.556 40.65 126.866 39.81 127.916 38.74C128.556 38.09 129.046 37.39 129.396 36.65C129.486 37.48 129.656 38.2 129.896 38.8C130.286 39.75 130.916 40.45 131.786 40.9C132.656 41.35 133.796 41.57 135.196 41.57C135.586 41.57 135.956 41.57 136.306 41.54C136.656 41.52 136.906 41.49 137.066 41.45V37.14H135.846H135.816ZM124.776 36.64C123.316 37.44 121.556 37.84 119.496 37.84C117.706 37.84 116.296 37.44 115.266 36.64C114.236 35.84 113.726 34.73 113.726 33.29C113.726 32.01 114.126 30.97 114.926 30.17C115.726 29.37 117.166 28.78 119.266 28.39L129.296 26.52V28.74C129.296 30.45 128.906 32 128.126 33.37C127.346 34.75 126.236 35.84 124.776 36.63V36.64Z" fill="#172b4d"/>
<path d="M15.4317 34.5171L12.5515 38.4813L21.2323 44.7882L24.1124 40.824L15.4317 34.5171Z" fill="#172b4d"/>
<path d="M3.31576 24.8174L0 35.0222L4.66019 36.5364L7.97594 26.3316L3.31576 24.8174Z" fill="#172b4d"/>
<path d="M13.446 11.8H2.71606V16.7H13.446V11.8Z" fill="#172b4d"/>
<path d="M25.6443 7.21732L20.9841 8.73151L24.2999 18.9363L28.9601 17.4222L25.6443 7.21732Z" fill="#172b4d"/>
<path d="M34.2096 23.6354L25.5288 29.9423L28.409 33.9065L37.0897 27.5996L34.2096 23.6354Z" fill="#172b4d"/>
</svg>
